<svg version="1.1" id="Layer_1" xmlns:x="ns_extend;" xmlns:i="ns_ai;" xmlns:graph="ns_graphs;" xmlns="http://www.w3.org/2000/svg" xmlns:xlink="http://www.w3.org/1999/xlink" x="0px" y="0px" viewBox="0 0 159 60" style="enable-background:new 0 0 159 60;" xml:space="preserve">
 <style type="text/css">
  .st0{filter:url(#Adobe_OpacityMaskFilter);}
	.st1{fill-rule:evenodd;clip-rule:evenodd;fill:#FFFFFF;}
	.st2{mask:url(#mask-2_1_);fill-rule:evenodd;clip-rule:evenodd;fill:#FFFFFF;}
	.st3{filter:url(#Adobe_OpacityMaskFilter_1_);}
	.st4{mask:url(#mask-4_1_);fill-rule:evenodd;clip-rule:evenodd;fill:#FFFFFF;}
	.st5{filter:url(#Adobe_OpacityMaskFilter_2_);}
	.st6{mask:url(#mask-6_1_);fill-rule:evenodd;clip-rule:evenodd;fill:#FFFFFF;}
	.st7{filter:url(#Adobe_OpacityMaskFilter_3_);}
	.st8{mask:url(#mask-6_2_);fill-rule:evenodd;clip-rule:evenodd;fill:#FFFFFF;}
	.st9{filter:url(#Adobe_OpacityMaskFilter_4_);}
	.st10{mask:url(#mask-6_3_);fill-rule:evenodd;clip-rule:evenodd;fill:#FFFFFF;}
	.st11{filter:url(#Adobe_OpacityMaskFilter_5_);}
	.st12{mask:url(#mask-6_4_);fill-rule:evenodd;clip-rule:evenodd;fill:#FFFFFF;}
	.st13{filter:url(#Adobe_OpacityMaskFilter_6_);}
	.st14{mask:url(#mask-6_5_);fill-rule:evenodd;clip-rule:evenodd;fill:#FFFFFF;}
	.st15{filter:url(#Adobe_OpacityMaskFilter_7_);}
	.st16{mask:url(#mask-6_6_);fill-rule:evenodd;clip-rule:evenodd;fill:#FFFFFF;}
	.st17{filter:url(#Adobe_OpacityMaskFilter_8_);}
	.st18{mask:url(#mask-6_7_);fill-rule:evenodd;clip-rule:evenodd;fill:#FFFFFF;}
	.st19{filter:url(#Adobe_OpacityMaskFilter_9_);}
	.st20{mask:url(#mask-6_8_);fill-rule:evenodd;clip-rule:evenodd;fill:#FFFFFF;}
	.st21{filter:url(#Adobe_OpacityMaskFilter_10_);}
	.st22{mask:url(#mask-6_9_);fill-rule:evenodd;clip-rule:evenodd;fill:#FFFFFF;}
	.st23{filter:url(#Adobe_OpacityMaskFilter_11_);}
	.st24{mask:url(#mask-6_10_);fill-rule:evenodd;clip-rule:evenodd;fill:#FFFFFF;}
	.st25{filter:url(#Adobe_OpacityMaskFilter_12_);}
	.st26{mask:url(#mask-6_11_);fill-rule:evenodd;clip-rule:evenodd;fill:#FFFFFF;}
 </style>
 <metadata>
  <sfw xmlns="ns_sfw;">
   <slices>
   </slices>
   <sliceSourceBounds bottomLeftOrigin="true" height="60" width="159" x="1" y="1">
   </sliceSourceBounds>
  </sfw>
 </metadata>
 <g id="北美官网">
  <g id="加入我们_x2F_加拿大" transform="translate(-80.000000, -28.000000)">
   <g id="海底捞logo-2" transform="translate(80.000000, 28.000000)">
    <g id="编组" transform="translate(1.000000, 1.000000)">
     <g transform="translate(0.000146, 0.000000)">
      <g id="Clip-2">
      </g>
      <defs>
       <filter id="Adobe_OpacityMaskFilter" filterUnits="userSpaceOnUse" x="-1" y="-1" width="60.2" height="60">
        <feColorMatrix type="matrix" values="1 0 0 0 0  0 1 0 0 0  0 0 1 0 0  0 0 0 1 0">
        </feColorMatrix>
       </filter>
      </defs>
      <mask maskUnits="userSpaceOnUse" x="-1" y="-1" width="60.2" height="60" id="mask-2_1_">
       <g class="st0">
        <polygon id="path-1_1_" class="st1" points="-1,-1 59.2,-1 59.2,59 -1,59 							">
        </polygon>
       </g>
      </mask>
      <path id="Fill-1" class="st2" d="M50.7,38.6c-3.5,8.3-11.3,14.9-20.1,18.3c0,0,0,0,0,0c-0.1,0-0.2-0.1-0.2-0.2c0,0,0-0.1,0-0.1
						c1.2-1.5,1.5-4-1.3-4c-0.5,0-1,0-1.5,0c-13-0.8-22.9-12-22.1-25c0.8-13,12.1-22.9,25.1-22.1c13,0.8,22.9,12,22.1,25
						C52.5,33.4,51.8,36.1,50.7,38.6 M29.1-1C12.5-1-1,12.5-1,29c0,16.5,13.5,30,30.1,30c16.6,0,30.1-13.5,30.1-30
						C59.2,12.5,45.6-1,29.1-1">
      </path>
     </g>
     <path id="Fill-3" class="st1" d="M33.6,25.8c-0.1,0-0.2,0-0.3,0c0.8-2.4,1.7-4.8,2.8-7.5c0.8-1.8,0.6-2.3-0.7-3.5
					c-0.5-0.4-1,0-1.2,0.5c-1.7,3.1-3.3,6.9-4.6,10.8c-2,0.3-3.9,0.7-5.7,1c-0.4,0.1-0.7,0.2-1.1,0.2c1.3-4.4,3-8.7,5.2-12.9
					c0.7-1.5,0.9-1.7-0.1-2.7c-0.4-0.4-0.9-0.8-1.3-0.7c-0.4,0-0.6,0.3-1,0.9C23,16,20.4,22.3,18.5,28.6c-2,0.6-3.7,1.3-5,2
					c-0.8,0.5-1.3,1.2-1.3,2.1c0,0.9,0.3,2.2,1.4,2.1c1.2-0.8,2.5-1.5,3.8-2.2c-0.9,3.3-1.5,6.5-1.9,9.2c-0.2,1,0,1.7,0.5,2.3
					c0.2,0.2,0.6,0.6,0.9,0.7c0.6,0.4,1.4,0.8,2.1,0.4c0.4-0.3,0.5-0.8,0.7-1.3c0.5-4.6,1.3-9,2.4-13.2c2.5-0.9,4.9-1.6,6.9-2.1
					c-1,3.3-1.7,6.6-2.1,9.5c-0.2,1.4-0.6,3.2,0.5,4.4c0.7,0.7,2,0.7,2.5,0c0.3-0.3,0.4-0.8,0.4-1.4c0.5-5,1.3-9.1,2.4-13.3
					c0.3-0.1,0.6-0.1,0.8-0.2c0.7-0.1,1.2-0.2,1.6-0.2c0.6,0,0.6-0.3,0.5-0.4C35.3,26.1,34.4,25.8,33.6,25.8">
     </path>
     <path id="Fill-5" class="st1" d="M44.5,35.9c-1.3,2.4-2.7,3.3-4.3,2.7c-1.3-0.5-0.7-2.9,0.1-5.7c0.6-2.2,1.7-4.5,2.1-5.3
					c0.2-0.3,0.3-0.4,0.3-0.7c0-0.2-0.2-0.5-0.4-0.7c0,0,0,0,0,0c0.1-0.1,0.1-0.4-0.3-0.7c-0.2-0.3-0.1-0.7-0.1-0.7
					c0.7-3.4-0.1-5.5-0.3-5.9c0,0,0,0,0,0c0,0,0,0,0,0c-0.2-0.3-0.5-0.6-0.9-0.6c-0.6,0-1.2,0.4-1.2,1c0,0.6,0.4,1.2,1,1.2
					c0.2,0,0.3,0,0.5-0.1l0,0c0.5-0.2,0.4,4.3-0.9,4.3c-0.3,0-1.2,0.1-1.2,0.3c-0.3,0-0.5,0.1-0.7,0.2c-0.4,0.3,0,0.9-0.1,1.5
					c-0.2,1.3-1,3-1.6,5.8c-0.4,1.8-2.4,8.2,3.8,8.2c3,0,4.6-3.2,4.9-4.7c0-0.1,0.1-0.2,0.2-0.2C45.6,35.7,44.9,35,44.5,35.9">
     </path>
     <g transform="translate(140.436361, 7.401762)">
      <g id="Clip-8">
      </g>
      <defs>
       <filter id="Adobe_OpacityMaskFilter_1_" filterUnits="userSpaceOnUse" x="-1" y="-1" width="18.6" height="6">
        <feColorMatrix type="matrix" values="1 0 0 0 0  0 1 0 0 0  0 0 1 0 0  0 0 0 1 0">
        </feColorMatrix>
       </filter>
      </defs>
      <mask maskUnits="userSpaceOnUse" x="-1" y="-1" width="18.6" height="6" id="mask-4_1_">
       <g class="st3">
        <polygon id="path-3_1_" class="st1" points="-1,-1 17.6,-1 17.6,5 -1,5 							">
        </polygon>
       </g>
      </mask>
      <polygon id="Fill-7" class="st4" points="-1,0.6 2.2,0.6 2.2,-1 5.4,-1 5.4,0.6 11.1,0.6 11.1,-1 14.3,-1 14.3,0.6 17.6,0.6 
						17.6,3.2 14.3,3.2 14.3,5 11.1,5 11.1,3.2 5.4,3.2 5.4,5 2.2,5 2.2,3.2 -1,3.2 					">
      </polygon>
     </g>
     <path id="Fill-9" class="st1" d="M140.6,13.5c-0.5,0.1-0.9,0.5-1,1v4h3.2v-2.4h11.8v2.4h3.2v-4c-0.1-0.5-0.5-0.9-1-1H140.6z">
     </path>
     <path id="Fill-11" class="st1" d="M156.6,20h-7.8c0-0.2,0-1.9,0-1.9h-3.3c0,0,0,1.6,0,1.9h-5.7v2.6h5.5c-0.5,3.5-2,6.3-5.5,8.4
					l0,0l2.1,2.6c4.3-2.7,6.2-6.4,6.7-11h5.6v1.2l0,0c0,2.9-0.3,5.3-2.7,7.2l2.1,2.6c3.3-2.6,4-5.8,3.9-9.8h0V21
					C157.5,20.5,157.1,20.1,156.6,20">
     </path>
     <path id="Fill-13" class="st1" d="M137.2,15.3c-0.2,0.1-0.4,0.3-0.6,0.4v-5.1h1.6V8h-1.6V6.4h-3.3V8h-2.4v2.6h2.4v7
					c-1.1,0.6-2.2,1-3.1,1.4l1.3,2.9c0.6-0.2,1.2-0.5,1.8-0.8v2.7c0,1.6-0.1,3-0.5,4.2c-0.4,1.1-1.1,2.1-2.2,3l2.1,2.6
					c1.7-1.3,2.7-2.8,3.3-4.4c0.6-1.6,0.7-3.4,0.7-5.3h0v-4.5c0.7-0.4,1.4-0.9,2-1.2L137.2,15.3z">
     </path>
     <path id="Fill-15" class="st1" d="M117.2,30.7c-0.9-1.1-1.7-2.6-1.7-4h-3.4c0.2,2.5,1.3,4.8,3,6.6L117.2,30.7z">
     </path>
     <path id="Fill-17" class="st1" d="M109.3,19.6v-4.8h6.3l1.3,4.8H109.3z M125.3,30.8c-0.9-0.8-1.5-1.6-2.1-2.5
					c-0.6-1-1-2.1-1.4-3.6h0l-0.7-2.4h4.7v-2.6h-5.4l-1.3-4.8h6.1v-2.6H107c-0.5,0.1-0.9,0.5-1,1c0,0,0,11.7,0,11.8
					c0,3.3,0,5.2,1.9,8l2.2-2.7c-0.8-1.6-0.8-3.1-0.8-5.3c0-0.2,0-2.8,0-2.8h8.4l0.9,3.3v0c0.5,1.7,1,3.1,1.8,4.4
					c0.7,1.3,1.6,2.3,2.8,3.4L125.3,30.8z">
     </path>
     <path id="Fill-19" class="st1" d="M115.1,7.5V6.1h-3.3v1.3h-10.1c-0.5,0.1-0.9,0.5-1,1v15.2c0,1.6-0.1,3-0.5,4.2
					c-0.4,1.1-1.1,2.1-2.2,3l2.1,2.6c1.7-1.3,2.7-2.8,3.3-4.4c0.6-1.6,0.7-3.4,0.7-5.3h0V10h21.7V7.5C122.3,7.5,118.7,7.5,115.1,7.5
					">
     </path>
     <path id="Fill-21" class="st1" d="M68.2,24.4L68.2,24.4c0,1.2-0.1,2.3-0.5,3.4c-0.4,1-1.1,2-2.4,3l2.1,2.6
					c1.8-1.4,2.8-2.8,3.4-4.3c0.6-1.5,0.7-3,0.8-4.6l0,0v-5.2h-3.3V24.4z">
     </path>
     <path id="Fill-23" class="st1" d="M75.7,10h18.4V7.5H78V6.1h-3.3V9C74.8,9.6,75.2,10,75.7,10">
     </path>
     <g id="Clip-26">
     </g>
     <defs>
      <filter id="Adobe_OpacityMaskFilter_2_" filterUnits="userSpaceOnUse" x="65.6" y="13.5" width="5.8" height="2.6">
       <feColorMatrix type="matrix" values="1 0 0 0 0  0 1 0 0 0  0 0 1 0 0  0 0 0 1 0">
       </feColorMatrix>
      </filter>
     </defs>
     <mask maskUnits="userSpaceOnUse" x="65.6" y="13.5" width="5.8" height="2.6" id="mask-6_1_">
      <g class="st5">
       <polygon id="path-5_1_" class="st1" points="-1,59 158,59 158,-1 -1,-1 						">
       </polygon>
      </g>
     </mask>
     <polygon id="Fill-25" class="st6" points="65.6,16.1 71.5,16.1 71.5,13.5 65.6,13.5 				">
     </polygon>
     <defs>
      <filter id="Adobe_OpacityMaskFilter_3_" filterUnits="userSpaceOnUse" x="73.4" y="12.1" width="21.4" height="21.6">
       <feColorMatrix type="matrix" values="1 0 0 0 0  0 1 0 0 0  0 0 1 0 0  0 0 0 1 0">
       </feColorMatrix>
      </filter>
     </defs>
     <mask maskUnits="userSpaceOnUse" x="73.4" y="12.1" width="21.4" height="21.6" id="mask-6_2_">
      <g class="st7">
       <polygon id="path-5_2_" class="st1" points="-1,59 158,59 158,-1 -1,-1 						">
       </polygon>
      </g>
     </mask>
     <path id="Fill-27" class="st8" d="M90,27.2h-4v-4.1h-3.3v4.1h-4.2l0.2-5.3H90C90,23.6,90.1,25.4,90,27.2L90,27.2z M79,14.7h11
					c0,1.5,0,3,0,4.6h-4V16h-3.3v3.3h-3.9L79,14.7z M94.8,21.9v-2.6h-1.5l0-6.2c-0.1-0.5-0.5-0.9-1-1H76.8c-0.5,0.1-0.9,0.5-1,1
					l-0.3,6.2h-2.1v2.6h2l-0.3,6.9c0.1,0.5,0.5,0.9,1,1h2.3h11c-0.3,0.5-0.8,0.9-1.5,1.4l0,0l2.1,2.6c1.6-1.1,2.4-2.2,2.9-3.6
					c0-0.1,0.1-0.3,0.1-0.4h1.5v-2.6h-1.1l0-5.3H94.8z">
     </path>
     <defs>
      <filter id="Adobe_OpacityMaskFilter_4_" filterUnits="userSpaceOnUse" x="65.6" y="7.4" width="5.8" height="2.6">
       <feColorMatrix type="matrix" values="1 0 0 0 0  0 1 0 0 0  0 0 1 0 0  0 0 0 1 0">
       </feColorMatrix>
      </filter>
     </defs>
     <mask maskUnits="userSpaceOnUse" x="65.6" y="7.4" width="5.8" height="2.6" id="mask-6_3_">
      <g class="st9">
       <polygon id="path-5_3_" class="st1" points="-1,59 158,59 158,-1 -1,-1 						">
       </polygon>
      </g>
     </mask>
     <polygon id="Fill-28" class="st10" points="65.6,10 71.5,10 71.5,7.4 65.6,7.4 				">
     </polygon>
     <defs>
      <filter id="Adobe_OpacityMaskFilter_5_" filterUnits="userSpaceOnUse" x="67.5" y="36.2" width="13.9" height="17.8">
       <feColorMatrix type="matrix" values="1 0 0 0 0  0 1 0 0 0  0 0 1 0 0  0 0 0 1 0">
       </feColorMatrix>
      </filter>
     </defs>
     <mask maskUnits="userSpaceOnUse" x="67.5" y="36.2" width="13.9" height="17.8" id="mask-6_4_">
      <g class="st11">
       <polygon id="path-5_4_" class="st1" points="-1,59 158,59 158,-1 -1,-1 						">
       </polygon>
      </g>
     </mask>
     <polygon id="Fill-29" class="st12" points="78.1,54 78.1,46.2 70.9,46.2 70.9,54 67.5,54 67.5,36.2 70.9,36.2 70.9,43.5 
					78.1,43.5 78.1,36.2 81.4,36.2 81.4,54 				">
     </polygon>
     <defs>
      <filter id="Adobe_OpacityMaskFilter_6_" filterUnits="userSpaceOnUse" x="98.1" y="36.2" width="3.3" height="17.8">
       <feColorMatrix type="matrix" values="1 0 0 0 0  0 1 0 0 0  0 0 1 0 0  0 0 0 1 0">
       </feColorMatrix>
      </filter>
     </defs>
     <mask maskUnits="userSpaceOnUse" x="98.1" y="36.2" width="3.3" height="17.8" id="mask-6_5_">
      <g class="st13">
       <polygon id="path-5_5_" class="st1" points="-1,59 158,59 158,-1 -1,-1 						">
       </polygon>
      </g>
     </mask>
     <path id="Fill-30" class="st14" d="M98.1,54h3.1V41.4h-3.1V54z M98.1,38.9h3.3v-2.7h-3.3V38.9z">
     </path>
     <defs>
      <filter id="Adobe_OpacityMaskFilter_7_" filterUnits="userSpaceOnUse" x="119.3" y="36.2" width="3.3" height="17.8">
       <feColorMatrix type="matrix" values="1 0 0 0 0  0 1 0 0 0  0 0 1 0 0  0 0 0 1 0">
       </feColorMatrix>
      </filter>
     </defs>
     <mask maskUnits="userSpaceOnUse" x="119.3" y="36.2" width="3.3" height="17.8" id="mask-6_6_">
      <g class="st15">
       <polygon id="path-5_6_" class="st1" points="-1,59 158,59 158,-1 -1,-1 						">
       </polygon>
      </g>
     </mask>
     <path id="Fill-31" class="st16" d="M119.3,54h3.1V41.4h-3.1V54z M119.3,38.9h3.3v-2.7h-3.3V38.9z">
     </path>
     <defs>
      <filter id="Adobe_OpacityMaskFilter_8_" filterUnits="userSpaceOnUse" x="145.6" y="41.1" width="12.4" height="13.3">
       <feColorMatrix type="matrix" values="1 0 0 0 0  0 1 0 0 0  0 0 1 0 0  0 0 0 1 0">
       </feColorMatrix>
      </filter>
     </defs>
     <mask maskUnits="userSpaceOnUse" x="145.6" y="41.1" width="12.4" height="13.3" id="mask-6_7_">
      <g class="st17">
       <polygon id="path-5_7_" class="st1" points="-1,59 158,59 158,-1 -1,-1 						">
       </polygon>
      </g>
     </mask>
     <path id="Fill-32" class="st18" d="M151.8,43.4c-2,0-3,1.1-3,4.2c0,2.8,0.9,4.3,3,4.3c1.9,0,3-1.3,3-4.3
					C154.8,44.6,153.9,43.4,151.8,43.4 M151.8,54.4c-4.5,0-6.2-3.1-6.2-6.7c0-3.5,1.7-6.6,6.2-6.6c4.6,0,6.2,2.9,6.2,6.6
					C158,51.2,156.3,54.4,151.8,54.4">
     </path>
     <defs>
      <filter id="Adobe_OpacityMaskFilter_9_" filterUnits="userSpaceOnUse" x="132.2" y="41.1" width="12.1" height="13.3">
       <feColorMatrix type="matrix" values="1 0 0 0 0  0 1 0 0 0  0 0 1 0 0  0 0 0 1 0">
       </feColorMatrix>
      </filter>
     </defs>
     <mask maskUnits="userSpaceOnUse" x="132.2" y="41.1" width="12.1" height="13.3" id="mask-6_8_">
      <g class="st19">
       <polygon id="path-5_8_" class="st1" points="-1,59 158,59 158,-1 -1,-1 						">
       </polygon>
      </g>
     </mask>
     <path id="Fill-33" class="st20" d="M140.2,50.7c-0.5,0.7-1.3,1.3-2.5,1.3s-2.2-0.3-2.2-1.4c0-1.5,1.1-2.4,4-2.4h0.7V50.7z
					 M143.3,49.8c0-0.9,0-4.7,0-4.7c0-2.7-2-4-4.8-4c-2,0-4.2,0.3-5.8,0.9l1.8,2.2c1.1-0.4,2.4-0.8,3.9-0.8c1.6,0,1.8,1.1,1.8,2v0.6
					h-1c-5.4,0-6.9,2-6.9,4.6c0,2.4,1.7,3.9,4.9,3.7c2.8-0.2,3.6-2,3.6-2c0.4,0.7,1,1.3,1.9,2l1.7-2.1
					C143.4,51.5,143.3,51.1,143.3,49.8L143.3,49.8z">
     </path>
     <defs>
      <filter id="Adobe_OpacityMaskFilter_10_" filterUnits="userSpaceOnUse" x="83.9" y="41.1" width="12.1" height="13.3">
       <feColorMatrix type="matrix" values="1 0 0 0 0  0 1 0 0 0  0 0 1 0 0  0 0 0 1 0">
       </feColorMatrix>
      </filter>
     </defs>
     <mask maskUnits="userSpaceOnUse" x="83.9" y="41.1" width="12.1" height="13.3" id="mask-6_9_">
      <g class="st21">
       <polygon id="path-5_9_" class="st1" points="-1,59 158,59 158,-1 -1,-1 						">
       </polygon>
      </g>
     </mask>
     <path id="Fill-34" class="st22" d="M91.9,50.7c-0.5,0.7-1.3,1.3-2.5,1.3c-1.2,0-2.2-0.3-2.2-1.4c0-1.5,1.1-2.4,4-2.4h0.7V50.7z
					 M95,49.8c0-0.9,0-4.7,0-4.7c0-2.7-2-4-4.8-4c-2,0-4.2,0.3-5.8,0.9l1.8,2.2c1.1-0.4,2.4-0.8,3.9-0.8c1.6,0,1.8,1.1,1.8,2v0.6h-1
					c-5.4,0-6.9,2-6.9,4.6c0,2.4,1.7,3.9,4.9,3.7c2.8-0.2,3.6-2,3.6-2c0.4,0.7,1,1.3,1.9,2l1.7-2.1C95.1,51.5,95,51.1,95,49.8
					L95,49.8z">
     </path>
     <defs>
      <filter id="Adobe_OpacityMaskFilter_11_" filterUnits="userSpaceOnUse" x="104.1" y="36.2" width="12.7" height="18.1">
       <feColorMatrix type="matrix" values="1 0 0 0 0  0 1 0 0 0  0 0 1 0 0  0 0 0 1 0">
       </feColorMatrix>
      </filter>
     </defs>
     <mask maskUnits="userSpaceOnUse" x="104.1" y="36.2" width="12.7" height="18.1" id="mask-6_10_">
      <g class="st23">
       <polygon id="path-5_10_" class="st1" points="-1,59 158,59 158,-1 -1,-1 						">
       </polygon>
      </g>
     </mask>
     <path id="Fill-35" class="st24" d="M112.6,49.9c-0.4,1.1-1.5,2-2.8,2c-1.9,0-2.6-1.6-2.6-4.3c0-3.4,1.2-4.2,2.6-4.2
					c1.3,0,2.8,1.1,2.8,2.4V49.9z M115.7,49.8V36.2h-3.1v6.9c-0.7-1-1.8-2.1-3.4-2.1c-3.6,0-5.2,3.1-5.2,6.6c0,3,1,6.7,5.2,6.7
					c2,0,3.4-1.4,3.8-2l0-0.1c0.4,0.8,1.1,1.4,2,2.1l1.7-2.1C115.9,51.5,115.7,51.1,115.7,49.8L115.7,49.8z">
     </path>
     <defs>
      <filter id="Adobe_OpacityMaskFilter_12_" filterUnits="userSpaceOnUse" x="126.1" y="36.2" width="4.2" height="19.9">
       <feColorMatrix type="matrix" values="1 0 0 0 0  0 1 0 0 0  0 0 1 0 0  0 0 0 1 0">
       </feColorMatrix>
      </filter>
     </defs>
     <mask maskUnits="userSpaceOnUse" x="126.1" y="36.2" width="4.2" height="19.9" id="mask-6_11_">
      <g class="st25">
       <polygon id="path-5_11_" class="st1" points="-1,59 158,59 158,-1 -1,-1 						">
       </polygon>
      </g>
     </mask>
     <path id="Fill-36" class="st26" d="M129.2,51.6V36.2h-3.1v15.3c0,2.7,0.9,3.4,2.4,4.6l1.7-2.1C129.3,53.3,129.2,52.9,129.2,51.6
					">
     </path>
    </g>
   </g>
  </g>
 </g>
</svg>